<svg width="157" height="120" viewBox="0 0 157 120" fill="none" xmlns="http://www.w3.org/2000/svg">
<path d="M14.8653 79.781C13.4373 83.1169 14.5375 83.4797 9.38736 83.4797H7.16342V75.6842H8.63824C11.0729 75.6842 11.7049 76.1056 11.8688 78.1657H13.0861V71.7982H11.8688C11.7049 73.8349 11.0729 74.2445 8.63824 74.2445H7.16342V67.1162H9.41077C13.1329 67.1162 12.3253 67.5844 13.0159 70.1244H14.4673L14.2566 65.6765C11.0026 65.735 9.14155 65.8404 6.4026 65.8404C4.28401 65.8404 2.142 65.7233 0 65.6765V66.9524C2.22394 66.9758 2.45804 67.2918 2.45804 68.8485V81.923C2.45804 83.4797 2.22394 83.784 0 83.8192V85.095H0.0468197C1.26413 85.095 2.31758 84.9311 4.54151 84.9311H15.4154L16.1762 80.1438L14.8653 79.781Z" fill="#89764B"/>
<path d="M32.2334 80.1789L30.782 80.0385C29.7988 82.8242 29.2604 83.4914 26.2405 83.4914H23.8059V68.8485C23.8059 67.2918 24.04 66.9875 26.3927 66.9524V65.6765C25.152 65.7936 23.4079 65.8404 21.4181 65.8404C19.4399 65.8404 17.6959 65.7819 16.5488 65.6765V66.9524C18.8547 66.9758 19.0888 67.2918 19.0888 68.8485V81.923C19.0888 83.4797 18.8547 83.784 16.5488 83.8192V85.095H16.6074C17.8247 85.095 18.8781 84.9311 21.102 84.9311H31.3556L32.2334 80.1789Z" fill="#89764B"/>
<path d="M42.4429 84.9311H46.8322C52.1229 84.9311 58.2094 82.5901 58.2094 75.2512C58.2094 68.0175 52.0175 65.8404 46.5162 65.8404H42.4429C40.2189 65.8404 39.1655 65.6765 37.9482 65.6765H37.9014V66.9524C40.1487 66.9758 40.3828 67.2918 40.3828 68.8485V81.923C40.3828 83.4797 40.1487 83.784 37.9014 83.8192V85.095H37.9482C39.1655 85.095 40.2189 84.9311 42.4429 84.9311ZM45.0765 67.2918H46.1885C50.3086 67.2918 51.9824 70.019 51.9824 75.3916C51.9824 80.7057 50.5778 83.4914 46.3523 83.4914H45.0882V67.2918H45.0765Z" fill="#89764B"/>
<path d="M69.0708 85.3758C74.8647 85.3758 78.6103 81.3962 78.6103 75.3798C78.6103 69.3635 74.853 65.3955 69.0708 65.3955C63.2768 65.3955 59.5312 69.3752 59.5312 75.3798C59.5312 81.3962 63.2885 85.3758 69.0708 85.3758ZM69.0708 66.7884C71.7161 66.7884 73.3314 68.3803 73.3314 75.3915C73.3314 82.4028 71.7161 83.9947 69.0708 83.9947C66.4255 83.9947 64.8102 82.4028 64.8102 75.3915C64.8219 68.3803 66.4255 66.7884 69.0708 66.7884Z" fill="#89764B"/>
<path d="M101.283 85.0953V83.8194C100.195 83.796 99.6914 83.5736 99.6914 82.8479C99.6914 82.5436 100.195 81.3497 100.885 79.1492H106.621C107.288 81.2092 107.779 82.4851 107.779 82.883C107.779 83.5268 107.089 83.8311 105.614 83.8311V85.107C106.246 84.9665 108.704 84.9431 110.261 84.9431C112.157 84.9431 113.702 85.0016 114.416 85.107V83.8311C113.07 83.7258 112.824 83.2225 112.356 81.8296C110.846 77.4051 107.311 66.9175 107.206 65.6885C106.328 65.7704 105.485 65.8523 104.619 65.8523C103.905 65.8523 103.191 65.7704 102.501 65.6885L103.133 67.9124L98.5092 81.5721C97.9825 83.1054 97.6079 83.796 96.3672 83.8311V85.107C96.8471 84.9665 97.7367 84.9431 98.8252 84.9431C99.9138 84.9314 100.815 84.9548 101.283 85.0953ZM103.133 72.3837C103.472 71.3537 103.613 70.7684 103.765 70.1832H103.812L106.106 77.6977H101.365L103.133 72.3837Z" fill="#89764B"/>
<path d="M124.341 65.8404H120.268C118.044 65.8404 116.991 65.6765 115.773 65.6765H115.715V66.9524C117.962 66.9758 118.196 67.2918 118.196 68.8485V81.923C118.196 83.4797 117.962 83.784 115.715 83.8192V85.095H115.773C116.991 85.095 118.044 84.9311 120.268 84.9311H124.657C129.948 84.9311 136.035 82.5901 136.035 75.2512C136.046 68.0175 129.843 65.8404 124.341 65.8404ZM124.189 83.4797H122.925V67.2918H124.037C128.157 67.2918 129.831 70.019 129.831 75.3916C129.819 80.7057 128.415 83.4797 124.189 83.4797Z" fill="#89764B"/>
<path d="M146.838 65.3955C141.044 65.3955 137.299 69.3752 137.299 75.3798C137.299 81.3962 141.056 85.3758 146.838 85.3758C152.632 85.3758 156.378 81.3962 156.378 75.3798C156.378 69.3752 152.621 65.3955 146.838 65.3955ZM146.838 83.9829C144.193 83.9829 142.578 82.3911 142.578 75.3798C142.578 68.3686 144.193 66.7767 146.838 66.7767C149.484 66.7767 151.099 68.3686 151.099 75.3798C151.087 82.4028 149.484 83.9829 146.838 83.9829Z" fill="#89764B"/>
<path d="M109.593 87.6467C105.532 87.3658 100.943 87.9744 96.3432 88.9693C95.4185 86.2655 95.0791 83.4914 94.0023 80.5769C92.8552 77.4751 91.3101 75.7779 91.2867 75.7545C94.0608 75.0873 95.442 73.7178 95.442 71.131C95.442 67.0694 92.7967 65.8404 87.506 65.8404H82.8592C80.6352 65.8404 79.5818 65.6765 78.3645 65.6765H78.3176V66.9524C80.565 66.9758 80.7991 67.2918 80.7991 68.8485V81.923C80.7991 83.4797 80.565 83.784 78.3176 83.8192V85.095H78.3645C79.5818 85.095 80.6352 84.9311 82.8592 84.9311C84.65 84.9311 86.3472 84.9897 88.0093 85.095V83.8192C85.7386 83.7958 85.4928 83.4797 85.4928 81.923V76.4685C85.8907 76.4451 86.2887 76.4451 86.6282 76.4099C86.8505 76.7845 87.0612 77.159 87.2602 77.5336C88.2434 79.7341 90.6195 85.0248 92.1997 88.3958C92.4221 88.8757 92.6445 89.3322 92.8786 89.777C90.0343 90.491 87.2368 91.3103 84.6032 92.0945C83.0698 90.093 80.7172 88.5362 78.2942 87.9861C72.1609 86.6166 66.285 88.5245 65.9338 91.5327C65.5827 94.5526 68.1929 93.4991 68.544 92.5744C68.8952 91.6498 68.1812 91.9307 68.2514 91.0645C68.427 88.864 73.0036 87.9978 77.7558 88.864C79.6871 89.2151 81.9579 90.6197 83.4327 92.4574C82.11 92.8671 80.8225 93.2533 79.6169 93.6162C75.8128 94.7633 70.4051 96.7414 64.6463 98.6961C62.7618 97.6193 60.8773 96.4839 58.9811 95.5241C51.5016 91.7551 46.2227 90.3622 40.6629 89.7887C37.0695 89.4141 27.7406 91.4157 27.2724 96.917C26.8042 102.43 32.1885 105.321 40.3117 105.614C47.007 105.86 56.6284 103.753 64.3186 101.693C73.6708 105.579 80.0266 104.467 82.4027 103.004C86.2536 100.651 86.991 97.5022 86.0195 94.6696C88.618 93.7449 91.3687 92.8203 94.1544 92.036C95.7814 94.6228 97.8415 96.7648 101.189 98.743C106 101.587 119.098 102.36 121.942 97.0809C124.775 91.8253 118.864 88.2904 109.593 87.6467ZM85.961 75.0288H85.4811V67.2918H86.6984C88.8638 67.2918 89.8119 68.4974 89.8119 71.447C89.8119 74.0572 88.5009 75.0288 85.961 75.0288ZM43.4955 104.233C32.8908 105.333 28.361 100.698 28.2439 97.2213C28.1269 93.7449 34.8572 90.9592 40.5926 91.1933C46.3281 91.4274 54.6269 96.6244 58.6182 98.9068C59.3205 99.3048 59.9994 99.6793 60.6783 100.019C54.5683 101.997 48.3764 103.729 43.4955 104.233ZM81.4663 101.33C76.9013 103.917 72.5237 102.769 68.1695 100.616C73.2611 99.1409 76.8194 97.9119 76.8194 97.9119C79.137 97.1745 81.8642 96.1562 84.8256 95.1027C85.4108 97.233 84.6734 99.5155 81.4663 101.33ZM118.29 98.4972C111.852 101.458 102.406 98.0172 99.0471 93.9205C98.3214 93.0309 97.7595 92.1414 97.303 91.2401C100.475 90.491 103.624 89.9877 106.585 89.976C121.017 89.8823 124.716 95.5358 118.29 98.4972Z" fill="#89764B"/>
<path d="M61.1132 24.7559C62.5646 23.0236 63.5947 21.6541 61.8975 20.1559C59.8023 18.3182 55.4598 20.1559 55.4598 20.1559C55.4598 20.1559 56.361 18.2597 61.6283 17.7915C65.5728 17.4404 69.8685 18.5172 69.8685 18.5172C69.8685 18.5172 71.9988 16.7498 78.0386 15.8251C83.6569 14.9706 92.7985 8.50949 95.8535 6.25044C91.0545 2.34099 84.9211 0 78.2493 0C62.8222 0 50.3213 12.5009 50.3213 27.928C50.3213 35.0446 52.99 41.5408 57.3677 46.4686C56.3025 43.9169 56.2557 41.1663 56.2557 41.1663C53.6221 36.3087 60.329 25.6923 61.1132 24.7559Z" fill="#89764B"/>
<path d="M96.6587 6.93994C96.5768 7.02188 96.5183 7.09211 96.4129 7.17404C95.102 8.22748 78.4458 20.6698 78.4458 20.6698L83.4556 17.8138C83.4556 17.8138 75.8122 26.4755 73.0499 29.2261C70.2875 31.9885 68.3211 35.2659 65.8279 38.8125C63.3348 42.3591 63.5923 45.5077 64.119 46.1632C64.6457 46.8186 66.4834 46.1632 67.3964 46.0344C68.3211 45.9057 66.6122 47.3454 66.6122 47.3454C66.6122 47.3454 68.0519 47.8721 70.4163 47.4741C72.7807 47.0762 72.5114 45.5077 73.3074 42.3591C74.0916 39.2104 78.5629 37.1036 77.5094 37.759C76.456 38.4145 74.8875 43.1433 75.8005 46.5494C76.7252 49.9673 82.7533 52.3317 82.2382 52.4604C79.5812 53.1276 76.3272 51.2782 75.145 50.494C73.9628 49.7098 73.3074 49.8385 72.1252 50.494C70.943 51.1495 69.1053 51.1495 68.3211 51.805C67.5368 52.4604 71.2122 53.3851 71.2122 53.3851C71.2122 53.3851 68.9531 54.0172 65.0788 52.5775C69 54.6727 73.4829 55.8666 78.2351 55.8666C93.6623 55.8666 106.163 43.3657 106.163 27.9386C106.175 19.5579 102.488 12.055 96.6587 6.93994Z" fill="#89764B"/>
<path d="M74.1748 20.4592C74.1748 19.8857 74.643 19.4175 75.2165 19.4175C75.7901 19.4175 76.2583 19.8857 76.2583 20.4592C76.2583 21.0328 75.7901 21.501 75.2165 21.501C74.643 21.501 74.1748 21.0328 74.1748 20.4592Z" fill="#89764B"/>
<path d="M33.9573 119.999C32.143 119.999 30.8672 118.782 30.8672 117.049C30.8672 115.258 32.2718 113.971 34.1914 113.971C34.8586 113.971 35.1512 114.018 35.8886 114.287L35.6545 114.966C35.0458 114.755 34.8 114.708 34.2733 114.708C32.7868 114.708 31.8153 115.621 31.8153 117.003C31.8153 118.337 32.74 119.262 34.086 119.262C34.4723 119.262 34.6362 119.226 35.0458 119.098V117.096H35.9471V119.566C35.0693 119.929 34.7181 119.999 33.9573 119.999Z" fill="#89764B"/>
<path d="M40.4187 119.988C38.8385 119.988 37.7148 118.759 37.7148 117.038C37.7148 115.259 38.9205 113.971 40.5708 113.971C42.151 113.971 43.2747 115.189 43.2747 116.898C43.2864 118.665 42.0457 119.988 40.4187 119.988ZM42.3266 116.863C42.3266 115.61 41.5072 114.744 40.4772 114.744C39.4472 114.744 38.6629 115.669 38.6629 116.921C38.6629 118.244 39.4355 119.18 40.5006 119.18C41.5775 119.18 42.3266 118.291 42.3266 117.026V116.863Z" fill="#89764B"/>
<path d="M45.251 119.871V114.089H46.164V119.11H48.6571V119.859H45.251V119.871Z" fill="#89764B"/>
<path d="M51.1981 114.803V116.512H53.4572V117.214H51.1981V119.871H50.2852V114.089H53.6094V114.803H51.1981Z" fill="#89764B"/>
<path d="M62.915 119.953L62.8331 119.906C62.1191 119.484 62.0255 119.449 61.686 119.204C61.1242 119.707 60.4921 119.953 59.7664 119.953C58.7013 119.953 57.9404 119.274 57.9404 118.337C57.9404 117.869 58.1628 117.389 58.514 117.05C58.7598 116.827 58.8183 116.769 59.2163 116.523C58.9822 116.172 58.8534 115.739 58.8534 115.317C58.8534 114.545 59.4855 113.971 60.3399 113.971C61.0891 113.971 61.6041 114.428 61.6041 115.107C61.6041 115.715 61.1944 116.219 60.2814 116.722C60.574 117.167 61.2295 117.846 61.6509 118.162C61.8733 117.881 61.9201 117.776 62.0606 117.225H62.798C62.716 117.612 62.6809 117.752 62.5405 118.068C62.4351 118.314 62.3883 118.396 62.2361 118.595C62.2713 118.618 62.2947 118.642 62.3181 118.642C62.4234 118.724 62.5522 118.817 62.7043 118.923C62.9501 119.098 63.1023 119.192 63.1608 119.215L63.313 119.285L63.3364 119.297L62.915 119.953ZM61.0422 118.7L60.7964 118.478C60.3516 118.092 59.8366 117.506 59.6142 117.132C59.0875 117.448 58.83 117.811 58.83 118.22C58.83 118.794 59.3099 119.227 59.9537 119.227C60.3634 119.227 60.8433 119.028 61.1008 118.747L61.0422 118.7ZM60.2697 114.65C59.9186 114.65 59.6611 114.931 59.6611 115.329C59.6611 115.61 59.743 115.856 59.9069 116.149C60.4804 115.856 60.773 115.516 60.773 115.154C60.773 114.861 60.574 114.65 60.2697 114.65Z" fill="#89764B"/>
<path d="M69.7264 119.871H67.9473V114.089H69.586C70.3 114.089 70.6979 114.171 71.0608 114.37C71.4587 114.592 71.6928 115.002 71.6928 115.482C71.6928 115.844 71.5524 116.172 71.3066 116.418C71.1193 116.593 70.9906 116.664 70.6511 116.781C71.4939 116.921 71.9738 117.436 71.9738 118.174C71.9738 119.204 71.0959 119.871 69.7264 119.871ZM69.6094 114.779H68.8603V116.488H69.4923C69.8786 116.488 70.1244 116.441 70.3117 116.336C70.5926 116.172 70.7682 115.891 70.7682 115.563C70.7682 115.025 70.3936 114.779 69.6094 114.779ZM70.5458 117.319C70.3234 117.19 70.0893 117.155 69.5625 117.155H68.8485V119.157H69.5274C69.9722 119.157 70.2765 119.098 70.4989 118.97C70.8033 118.794 70.9788 118.466 70.9788 118.092C70.9905 117.764 70.8384 117.483 70.5458 117.319Z" fill="#89764B"/>
<path d="M73.916 119.871L73.9277 114.089H77.3104V114.803H74.8407V116.488H77.1817V117.19H74.8407V119.11H77.4743V119.859H73.916V119.871Z" fill="#89764B"/>
<path d="M83.5051 119.871L82.7443 117.963H80.415L79.6542 119.871H78.7529L81.1407 114.089H82.1005L84.4883 119.871H83.5051ZM81.5738 115.002L80.6842 117.284H82.4868L81.5738 115.002Z" fill="#89764B"/>
<path d="M90.6564 119.567C90.1531 119.848 89.5093 120 88.8655 120C87.0747 120 85.8223 118.783 85.8223 117.05C85.8223 115.259 87.2035 113.96 89.1348 113.96C89.72 113.96 90.1882 114.054 90.8086 114.288L90.5628 114.967C90.4223 114.92 90.317 114.885 90.2467 114.873C89.8605 114.768 89.521 114.721 89.1816 114.721C87.7419 114.721 86.7821 115.634 86.7821 116.992C86.7821 118.303 87.6834 119.216 88.9709 119.216C89.2284 119.216 89.4976 119.181 89.7551 119.11C90.0477 119.04 90.2116 118.97 90.5979 118.771L90.9139 119.403C90.7969 119.485 90.7149 119.532 90.6564 119.567Z" fill="#89764B"/>
<path d="M96.4027 119.871V117.179H93.5233V119.871H92.6104V114.089H93.5233V116.488H96.4027V114.089H97.3157V119.871H96.4027Z" fill="#89764B"/>
<path d="M107.007 119.567C106.504 119.848 105.86 120 105.216 120C103.425 120 102.173 118.783 102.173 117.05C102.173 115.259 103.554 113.96 105.485 113.96C106.071 113.96 106.539 114.054 107.159 114.288L106.913 114.967C106.773 114.92 106.668 114.885 106.597 114.873C106.211 114.768 105.872 114.721 105.532 114.721C104.092 114.721 103.133 115.634 103.133 116.992C103.133 118.303 104.034 119.216 105.321 119.216C105.579 119.216 105.848 119.181 106.106 119.11C106.398 119.04 106.562 118.97 106.948 118.771L107.264 119.403C107.147 119.485 107.066 119.532 107.007 119.567Z" fill="#89764B"/>
<path d="M108.95 119.871V114.089H109.863V119.11H112.368V119.859H108.95V119.871Z" fill="#89764B"/>
<path d="M118.548 118.735C118.232 119.508 117.366 119.988 116.289 119.988C115.587 119.988 115.025 119.801 114.604 119.426C114.171 119.04 114.019 118.548 114.019 117.6V114.089H114.932V117.6C114.932 118.057 114.955 118.22 115.049 118.478C115.224 118.934 115.692 119.215 116.324 119.215C116.746 119.215 117.109 119.098 117.401 118.899C117.788 118.618 117.916 118.279 117.916 117.495V114.1H118.747V117.565C118.747 118.021 118.689 118.408 118.548 118.735Z" fill="#89764B"/>
<path d="M122.726 119.871H120.936V114.089H122.574C123.288 114.089 123.686 114.171 124.049 114.37C124.447 114.592 124.681 115.002 124.681 115.482C124.681 115.844 124.541 116.172 124.295 116.418C124.108 116.593 123.979 116.664 123.639 116.781C124.482 116.921 124.962 117.436 124.962 118.174C124.974 119.204 124.096 119.871 122.726 119.871ZM122.609 114.779H121.86V116.488H122.492C122.879 116.488 123.124 116.441 123.312 116.336C123.593 116.172 123.768 115.891 123.768 115.563C123.768 115.025 123.394 114.779 122.609 114.779ZM123.546 117.319C123.335 117.19 123.101 117.155 122.563 117.155H121.837V119.157H122.516C122.972 119.157 123.265 119.098 123.487 118.97C123.792 118.794 123.979 118.466 123.979 118.092C123.991 117.764 123.838 117.483 123.546 117.319Z" fill="#89764B"/>
</svg>
